<svg xmlns="http://www.w3.org/2000/svg" version="1.1" xmlns:xlink="http://www.w3.org/1999/xlink" xmlns:svgjs="http://svgjs.dev/svgjs" width="2000" height="505" viewBox="0 0 2000 505"><g transform="matrix(1,0,0,1,-1.2121212121212466,1.0126873117299056)"><svg viewBox="0 0 396 100" data-background-color="#000000" preserveAspectRatio="xMidYMid meet" height="505" width="2000" xmlns="http://www.w3.org/2000/svg" xmlns:xlink="http://www.w3.org/1999/xlink"><g id="tight-bounds" transform="matrix(1,0,0,1,0.2400000000000091,-0.2005321409366161)"><svg viewBox="0 0 395.52 100.40106428187322" height="100.40106428187322" width="395.52"><g><svg viewBox="0 0 646.3882398734262 164.0828964972157" height="100.40106428187322" width="395.52"><g></g><g transform="matrix(1,0,0,1,250.8682398734262,0.40816640919705094)"><svg viewBox="0 0 395.52 163.2665636788216" height="163.2665636788216" width="395.52"><g id="textblocktransform"><svg viewBox="0 0 395.52 163.2665636788216" height="163.2665636788216" width="395.52" id="textblock"><g><svg viewBox="0 0 395.52 163.2665636788216" height="163.2665636788216" width="395.52"><g transform="matrix(1,0,0,1,0,0)"><svg width="395.52" viewBox="2.1499999999999932 -40.79999999999999 278.35 111.9" height="163.2665636788216" data-palette-color="url(#787f21bd-b29c-4813-914d-f5eb16f2f877)"><svg></svg><svg></svg><g class="wordmark-text-0" data-fill-palette-color="primary" id="text-0"></g></svg></g></svg></g></svg></g></svg></g><g transform="matrix(1,0,0,1,0,7.755161774744025)"><svg viewBox="0 0 207.36028166805153 148.57257294772765" height="148.57257294772765" width="207.36028166805153"><g><svg xmlns="http://www.w3.org/2000/svg" xmlns:xlink="http://www.w3.org/1999/xlink" version="1.1" x="0" y="0" viewBox="1.5 15.2 97 69.5" enable-background="new 0 0 100 100" xml:space="preserve" height="148.57257294772765" width="207.36028166805153" class="icon-icon-0" data-fill-palette-color="accent" id="icon-0"></svg></g></svg></g></svg></g><defs></defs><mask id="40a4cfdb-3ae9-4b6b-82aa-b05aa90d50cb"><g id="SvgjsG1111"><svg viewBox="0 0 395.52 100.40106428187322" height="100.40106428187322" width="395.52"><g><svg viewBox="0 0 646.3882398734262 164.0828964972157" height="100.40106428187322" width="395.52"><g><rect width="6.977346781886286" height="164.0828964972157" x="225.62558737979572" y="0" fill="white" opacity="1" stroke-width="0" stroke="transparent" fill-opacity="1" class="rect-yte-0" rx="1%" id="SvgjsRect1110" data-palette-color="url(#787f21bd-b29c-4813-914d-f5eb16f2f877)"></rect></g><g transform="matrix(1,0,0,1,250.8682398734262,0.40816640919705094)"><svg viewBox="0 0 395.52 163.2665636788216" height="163.2665636788216" width="395.52"><g id="SvgjsG1109"><svg viewBox="0 0 395.52 163.2665636788216" height="163.2665636788216" width="395.52" id="SvgjsSvg1108"><g><svg viewBox="0 0 395.52 163.2665636788216" height="163.2665636788216" width="395.52"><g transform="matrix(1,0,0,1,0,0)"><svg width="395.52" viewBox="2.1499999999999932 -40.79999999999999 278.35 111.9" height="163.2665636788216" data-palette-color="url(#787f21bd-b29c-4813-914d-f5eb16f2f877)"><svg></svg><svg></svg><g class="wordmark-text-0" data-fill-palette-color="primary" id="SvgjsG1107"><path d="M2.6-39.95v0c1.7 0 4.15-0.067 7.35-0.2 3.2-0.133 5.317-0.2 6.35-0.2v0h1.35c4.367 0 7.617 0.89 9.75 2.67 2.133 1.787 3.2 4.13 3.2 7.03v0c0 4.133-2.7 7-8.1 8.6v0 0.15c3.133 0.467 5.61 1.69 7.43 3.67 1.813 1.987 2.72 4.363 2.72 7.13v0c0 3.7-1.257 6.583-3.77 8.65-2.52 2.067-6.213 3.1-11.08 3.1v0c-1.333 0-3.49-0.107-6.47-0.32-2.987-0.22-5.363-0.33-7.13-0.33v0c-0.2 0-0.517 0.01-0.95 0.03-0.433 0.013-0.75 0.02-0.95 0.02v0c-0.2-0.6-0.2-1.2 0-1.8v0l4.15-0.55c0.133-1.267 0.2-3.217 0.2-5.85v0-29.45l-4.05-0.5c-0.133-0.5-0.133-1.117 0-1.85zM16-20.3v0h-4v18.1c1.7 0.3 3.05 0.483 4.05 0.55v0c4.033 0 6.817-0.76 8.35-2.28 1.533-1.513 2.3-3.887 2.3-7.12v0c0-2.6-0.94-4.793-2.82-6.58-1.887-1.78-4.513-2.67-7.88-2.67zM16.35-38.25v0c-1.667 0-3.05 0.117-4.15 0.35v0c-0.133 1.267-0.2 3.35-0.2 6.25v0 8.85h3.9c3.1 0 5.36-0.633 6.78-1.9 1.413-1.267 2.12-3.15 2.12-5.65v0c0-2.533-0.773-4.483-2.32-5.85-1.553-1.367-3.597-2.05-6.13-2.05zM41.85-6.65v0c0 1.733 0.317 2.957 0.95 3.67 0.633 0.72 1.633 1.08 3 1.08v0c1 0 2.11-0.31 3.33-0.93 1.213-0.613 2.337-1.503 3.37-2.67v0-7.8c-3.433 0.2-6.067 0.807-7.9 1.82-1.833 1.02-2.75 2.63-2.75 4.83zM52.5-15.1v0-2.55c0-2.833-0.323-4.893-0.97-6.18-0.653-1.28-1.73-1.92-3.23-1.92v0c-1.533 0-2.767 0.49-3.7 1.47-0.933 0.987-1.567 2.663-1.9 5.03v0c-1.067 0.233-1.85 0.35-2.35 0.35v0c-1.3 0-2.067-0.467-2.3-1.4v0c0-2.267 0.983-4.067 2.95-5.4 1.967-1.333 4.417-2 7.35-2v0c3.233 0 5.527 0.657 6.88 1.97 1.347 1.32 2.02 3.68 2.02 7.08v0 14.1c0 0.833 0.05 1.55 0.15 2.15v0l3.95 0.5c0.133 0.5 0.133 1.133 0 1.9v0c-2.367 0.1-4.883 0.333-7.55 0.7v0c-0.267-0.267-0.433-0.6-0.5-1v0l-0.25-3.45c-2.767 3.167-5.85 4.75-9.25 4.75v0c-2.1 0-3.74-0.6-4.92-1.8-1.187-1.2-1.78-2.817-1.78-4.85v0c0-3.067 1.393-5.383 4.18-6.95 2.78-1.567 6.52-2.4 11.22-2.5zM72.45-26.7v0l-0.1 5.15c0.833-1.533 1.993-2.943 3.48-4.23 1.48-1.28 2.887-1.92 4.22-1.92v0c1.033 0 1.95 0.117 2.75 0.35v0c0.267 0.433 0.4 1 0.4 1.7v0c0 1.1-0.233 2.2-0.7 3.3v0c-1.2-0.333-2.35-0.5-3.45-0.5v0c-2.733 0-4.983 1.333-6.75 4v0l-0.1 8.75v7.55l5.55 0.75c0.133 0.533 0.133 1.2 0 2v0c-2.1-0.1-4.5-0.15-7.2-0.15v0c-2.033 0-4.45 0.033-7.25 0.1v0c-0.2-0.633-0.2-1.283 0-1.95v0l3.95-0.55c0.133-1.833 0.2-3.95 0.2-6.35v0-13.7c0-0.667-0.05-1.283-0.15-1.85v0l-3.95-0.5c-0.133-0.5-0.133-1.133 0-1.9v0c2.3-0.167 5.167-0.517 8.6-1.05v0c0.3 0.333 0.467 0.667 0.5 1zM90.3-6.65v0c0 1.733 0.317 2.957 0.95 3.67 0.633 0.72 1.633 1.08 3 1.08v0c1 0 2.11-0.31 3.33-0.93 1.213-0.613 2.337-1.503 3.37-2.67v0-7.8c-3.433 0.2-6.067 0.807-7.9 1.82-1.833 1.02-2.75 2.63-2.75 4.83zM100.95-15.1v0-2.55c0-2.833-0.323-4.893-0.97-6.18-0.653-1.28-1.73-1.92-3.23-1.92v0c-1.533 0-2.767 0.49-3.7 1.47-0.933 0.987-1.567 2.663-1.9 5.03v0c-1.067 0.233-1.85 0.35-2.35 0.35v0c-1.3 0-2.067-0.467-2.3-1.4v0c0-2.267 0.983-4.067 2.95-5.4 1.967-1.333 4.417-2 7.35-2v0c3.233 0 5.527 0.657 6.88 1.97 1.347 1.32 2.02 3.68 2.02 7.08v0 14.1c0 0.833 0.05 1.55 0.15 2.15v0l3.95 0.5c0.133 0.5 0.133 1.133 0 1.9v0c-2.367 0.1-4.883 0.333-7.55 0.7v0c-0.267-0.267-0.433-0.6-0.5-1v0l-0.25-3.45c-2.767 3.167-5.85 4.75-9.25 4.75v0c-2.1 0-3.74-0.6-4.92-1.8-1.187-1.2-1.78-2.817-1.78-4.85v0c0-3.067 1.393-5.383 4.18-6.95 2.78-1.567 6.52-2.4 11.22-2.5zM132.55-8.7v-9.15c0-2.567-0.34-4.367-1.02-5.4-0.687-1.033-1.83-1.55-3.43-1.55v0c-2.467 0-4.95 1.85-7.45 5.55v0 16.7l4.05 0.75c0.133 0.533 0.133 1.2 0 2v0c-2.1-0.1-4.25-0.15-6.45-0.15v0c-1.533 0-3.7 0.033-6.5 0.1v0c-0.2-0.633-0.2-1.283 0-1.95v0l3.95-0.55c0.133-1.833 0.2-3.95 0.2-6.35v0-13.7c0-0.667-0.05-1.283-0.15-1.85v0l-3.95-0.5c-0.133-0.5-0.133-1.133 0-1.9v0c2.3-0.167 5.167-0.517 8.6-1.05v0c0.3 0.333 0.467 0.667 0.5 1v0c-0.167 0.867-0.25 2.35-0.25 4.45v0c2.633-3.633 5.6-5.45 8.9-5.45v0c5.167 0 7.75 2.45 7.75 7.35v0 17.8l4.05 0.75c0.133 0.533 0.133 1.2 0 2v0c-2.1-0.1-4.25-0.15-6.45-0.15v0c-1.533 0-3.7 0.033-6.5 0.1v0c-0.2-0.633-0.2-1.283 0-1.95v0l3.95-0.55c0.133-1.833 0.2-3.95 0.2-6.35zM144.25-13.3v0c0-2 0.293-3.877 0.88-5.63 0.58-1.747 1.42-3.27 2.52-4.57 1.1-1.3 2.427-2.327 3.98-3.08 1.547-0.747 3.287-1.12 5.22-1.12v0c1.9 0 3.633 0.373 5.2 1.12 1.567 0.753 2.91 1.78 4.03 3.08 1.113 1.3 1.97 2.823 2.57 4.57 0.6 1.753 0.9 3.63 0.9 5.63v0c0 2.067-0.307 3.967-0.92 5.7-0.62 1.733-1.487 3.24-2.6 4.52-1.12 1.287-2.463 2.287-4.03 3-1.567 0.72-3.283 1.08-5.15 1.08v0c-1.967 0-3.723-0.35-5.27-1.05-1.553-0.7-2.87-1.683-3.95-2.95-1.087-1.267-1.92-2.777-2.5-4.53-0.587-1.747-0.88-3.67-0.88-5.77zM151.55-22.5v0c-1.433 2.033-2.15 5.1-2.15 9.2v0c0 2.033 0.193 3.817 0.58 5.35 0.38 1.533 0.903 2.807 1.57 3.82 0.667 1.02 1.45 1.78 2.35 2.28 0.9 0.5 1.883 0.75 2.95 0.75v0c1.033 0 2.017-0.25 2.95-0.75 0.933-0.5 1.733-1.26 2.4-2.28 0.667-1.013 1.2-2.287 1.6-3.82 0.4-1.533 0.6-3.317 0.6-5.35v0c0-2.033-0.2-3.827-0.6-5.38-0.4-1.547-0.94-2.83-1.62-3.85-0.687-1.013-1.487-1.78-2.4-2.3-0.92-0.513-1.897-0.77-2.93-0.77v0c-2.067 0-3.833 1.033-5.3 3.1zM209.4-24.3l-10.15 26.5h-1.05l-6.6-18.35-6.85 18.35h-1.05l-9.6-26.45-3.15-0.6c-0.133-0.533-0.133-1.2 0-2v0c1.833 0.133 3.817 0.2 5.95 0.2v0c1.9 0 3.917-0.05 6.05-0.15v0c0.2 0.667 0.2 1.317 0 1.95v0l-3.85 0.6 4 11.35c1.167 3.333 1.933 5.75 2.3 7.25v0h0.1c0.8-2.867 1.583-5.2 2.35-7v0l2.55-6.85-1.7-4.75-3.15-0.6c-0.133-0.533-0.133-1.2 0-2v0c1.833 0.133 3.817 0.2 5.95 0.2v0c1.9 0 3.917-0.05 6.05-0.15v0c0.2 0.667 0.2 1.317 0 1.95v0l-3.85 0.6 3.85 11.35c1.167 3.333 1.933 5.75 2.3 7.25v0h0.1c0.8-2.867 1.583-5.2 2.35-7v0l4.35-11.8-3.9-0.4c-0.133-0.533-0.133-1.2 0-2v0c1.833 0.133 3.55 0.2 5.15 0.2v0c1.367 0 3.117-0.05 5.25-0.15v0c0.2 0.667 0.2 1.317 0 1.95v0zM224.15-1.2v0c1.8 0 3.133-0.417 4-1.25 0.867-0.833 1.3-1.8 1.3-2.9v0c0-0.633-0.1-1.217-0.3-1.75-0.2-0.533-0.523-1.05-0.97-1.55-0.453-0.5-1.047-0.993-1.78-1.48-0.733-0.48-1.65-1.003-2.75-1.57v0c-1.367-0.7-2.54-1.367-3.52-2-0.987-0.633-1.797-1.3-2.43-2-0.633-0.7-1.107-1.45-1.42-2.25-0.32-0.8-0.48-1.7-0.48-2.7v0c0-1.2 0.217-2.243 0.65-3.13 0.433-0.88 1.043-1.613 1.83-2.2 0.78-0.58 1.703-1.013 2.77-1.3 1.067-0.28 2.25-0.42 3.55-0.42v0c2.6 0 5.133 0.633 7.6 1.9v0 6.4h-2.35l-1.1-5.4c-1.467-0.7-3.017-1.05-4.65-1.05v0c-2.733 0-4.1 1.117-4.1 3.35v0c0 1.2 0.45 2.3 1.35 3.3 0.9 1 2.35 2 4.35 3v0c1.367 0.7 2.567 1.367 3.6 2 1.033 0.633 1.893 1.3 2.58 2 0.68 0.7 1.197 1.457 1.55 2.27 0.347 0.82 0.52 1.747 0.52 2.78v0c0 1.167-0.25 2.25-0.75 3.25-0.5 1-1.2 1.857-2.1 2.57-0.9 0.72-1.983 1.29-3.25 1.71-1.267 0.413-2.667 0.62-4.2 0.62v0c-2.967 0-5.75-0.633-8.35-1.9v0-6.4h2.35l1.1 4.95c1.7 0.767 3.5 1.15 5.4 1.15zM256.55-2.3l-10.15-12.1 10.45-10.1-3.3-0.4c-0.133-0.533-0.133-1.183 0-1.95v0c1.833 0.133 3.55 0.2 5.15 0.2v0c1.3 0 3.033-0.05 5.2-0.15v0c0.2 0.6 0.2 1.233 0 1.9v0l-3.95 0.7-8.85 8.3 10.9 13.05 3.9 1c0.133 0.533 0.133 1.2 0 2v0c-2.1-0.1-4.2-0.15-6.3-0.15v0c-1.433 0-3.55 0.033-6.35 0.1v0c-0.2-0.667-0.2-1.317 0-1.95v0zM245.85-31.7v0 29.15l4.05 0.75c0.133 0.533 0.133 1.2 0 2v0c-2.1-0.1-4.233-0.15-6.4-0.15v0c-1.533 0-3.7 0.033-6.5 0.1v0c-0.2-0.633-0.2-1.283 0-1.95v0l3.95-0.55c0.133-1.833 0.2-3.95 0.2-6.35v0-28.65l-4.1-0.5c-0.133-0.5-0.133-1.133 0-1.9v0c2.233-0.167 5.083-0.517 8.55-1.05v0c0.3 0.333 0.467 0.667 0.5 1v0c-0.167 0.867-0.25 3.567-0.25 8.1zM276.35-18.6v0 16.05l4.05 0.75c0.033 0.167 0.057 0.317 0.07 0.45 0.02 0.133 0.03 0.283 0.03 0.45v0c0 0.167-0.01 0.34-0.03 0.52-0.013 0.187-0.037 0.38-0.07 0.58v0c-2.1-0.1-4.25-0.15-6.45-0.15v0c-0.767 0-1.69 0.01-2.77 0.03-1.087 0.013-2.33 0.037-3.73 0.07v0c-0.1-0.3-0.15-0.617-0.15-0.95v0c0-0.3 0.05-0.633 0.15-1v0l3.95-0.55c0.067-0.933 0.117-1.927 0.15-2.98 0.033-1.047 0.05-2.17 0.05-3.37v0-10.65c0-2.2-0.05-3.833-0.15-4.9v0l-3.95-0.5c-0.067-0.167-0.1-0.45-0.1-0.85v0c0-0.167 0-0.333 0-0.5 0-0.167 0.033-0.35 0.1-0.55v0c2.267-0.133 5.133-0.483 8.6-1.05v0c0.3 0.333 0.467 0.667 0.5 1v0c-0.167 0.933-0.25 3.633-0.25 8.1zM269.05-36.45v0c-0.067-0.167-0.1-0.343-0.1-0.53 0-0.18 0-0.353 0-0.52v0c0-0.9 0.373-1.627 1.12-2.18 0.753-0.547 1.68-0.82 2.78-0.82v0c1.033 0 1.877 0.307 2.53 0.92 0.647 0.62 0.97 1.463 0.97 2.53v0c0 0.867-0.377 1.567-1.13 2.1-0.747 0.533-1.703 0.8-2.87 0.8v0c-0.8 0-1.51-0.2-2.13-0.6-0.613-0.4-1.003-0.967-1.17-1.7z" fill="white" fill-rule="nonzero" stroke="none" stroke-width="1" stroke-linecap="butt" stroke-linejoin="miter" stroke-miterlimit="10" stroke-dasharray="" stroke-dashoffset="0" font-family="none" font-weight="none" font-size="none" text-anchor="none" style="mix-blend-mode: normal" opacity="1"></path><path transform="translate(0,57.45)" d="M6.65-8.15v0-29.45l-4.05-0.55c-0.2-0.6-0.2-1.2 0-1.8v0l6.85 0.15h20.2l0.05 11.6c-0.733 0.133-1.35 0.133-1.85 0v0l-2.35-9.05h-13.5v14.75l8-0.15 1.15-4.9c0.5-0.133 1.117-0.133 1.85 0v0c-0.133 1.867-0.2 4.017-0.2 6.45v0c0 2.233 0.05 4.4 0.15 6.5v0c-0.6 0.2-1.2 0.2-1.8 0v0l-1.1-5.2-8.05-0.15v17.75l4.55 0.5c0.133 0.5 0.133 1.117 0 1.85v0c-2.1-0.1-4.467-0.15-7.1-0.15v0c-1.967 0-4.35 0.033-7.15 0.1v0c-0.2-0.6-0.2-1.2 0-1.8v0l4.15-0.6c0.133-1.267 0.2-3.217 0.2-5.85zM41.5-18.6v0 16.05l4.05 0.75c0.033 0.167 0.06 0.317 0.08 0.45 0.013 0.133 0.02 0.283 0.02 0.45v0c0 0.167-0.007 0.34-0.02 0.52-0.02 0.187-0.047 0.38-0.08 0.58v0c-2.1-0.1-4.25-0.15-6.45-0.15v0c-0.767 0-1.69 0.01-2.77 0.03-1.087 0.013-2.33 0.037-3.73 0.07v0c-0.1-0.3-0.15-0.617-0.15-0.95v0c0-0.3 0.05-0.633 0.15-1v0l3.95-0.55c0.067-0.933 0.117-1.927 0.15-2.98 0.033-1.047 0.05-2.17 0.05-3.37v0-10.65c0-2.2-0.05-3.833-0.15-4.9v0l-3.95-0.5c-0.067-0.167-0.1-0.45-0.1-0.85v0c0-0.167 0-0.333 0-0.5 0-0.167 0.033-0.35 0.1-0.55v0c2.267-0.133 5.133-0.483 8.6-1.05v0c0.3 0.333 0.467 0.667 0.5 1v0c-0.167 0.933-0.25 3.633-0.25 8.1zM34.2-36.45v0c-0.067-0.167-0.1-0.343-0.1-0.53 0-0.18 0-0.353 0-0.52v0c0-0.9 0.377-1.627 1.13-2.18 0.747-0.547 1.67-0.82 2.77-0.82v0c1.033 0 1.877 0.307 2.53 0.92 0.647 0.62 0.97 1.463 0.97 2.53v0c0 0.867-0.373 1.567-1.12 2.1-0.753 0.533-1.713 0.8-2.88 0.8v0c-0.8 0-1.507-0.2-2.12-0.6-0.62-0.4-1.013-0.967-1.18-1.7zM56.45-31.7v0 29.15l4.05 0.75c0.133 0.533 0.133 1.2 0 2v0c-2.1-0.1-4.25-0.15-6.45-0.15v0c-1.533 0-3.7 0.033-6.5 0.1v0c-0.2-0.633-0.2-1.283 0-1.95v0l3.95-0.55c0.133-1.833 0.2-3.95 0.2-6.35v0-28.65l-4.1-0.5c-0.133-0.5-0.133-1.133 0-1.9v0c2.3-0.167 5.167-0.517 8.6-1.05v0c0.3 0.333 0.467 0.667 0.5 1v0c-0.167 0.867-0.25 3.567-0.25 8.1zM71.95-18.6v0 16.05l4.05 0.75c0.033 0.167 0.06 0.317 0.08 0.45 0.013 0.133 0.02 0.283 0.02 0.45v0c0 0.167-0.007 0.34-0.02 0.52-0.02 0.187-0.047 0.38-0.08 0.58v0c-2.1-0.1-4.25-0.15-6.45-0.15v0c-0.767 0-1.69 0.01-2.77 0.03-1.087 0.013-2.33 0.037-3.73 0.07v0c-0.1-0.3-0.15-0.617-0.15-0.95v0c0-0.3 0.05-0.633 0.15-1v0l3.95-0.55c0.067-0.933 0.117-1.927 0.15-2.98 0.033-1.047 0.05-2.17 0.05-3.37v0-10.65c0-2.2-0.05-3.833-0.15-4.9v0l-3.95-0.5c-0.067-0.167-0.1-0.45-0.1-0.85v0c0-0.167 0-0.333 0-0.5 0-0.167 0.033-0.35 0.1-0.55v0c2.267-0.133 5.133-0.483 8.6-1.05v0c0.3 0.333 0.467 0.667 0.5 1v0c-0.167 0.933-0.25 3.633-0.25 8.1zM64.65-36.45v0c-0.067-0.167-0.1-0.343-0.1-0.53 0-0.18 0-0.353 0-0.52v0c0-0.9 0.377-1.627 1.13-2.18 0.747-0.547 1.67-0.82 2.77-0.82v0c1.033 0 1.877 0.307 2.53 0.92 0.647 0.62 0.97 1.463 0.97 2.53v0c0 0.867-0.373 1.567-1.12 2.1-0.753 0.533-1.713 0.8-2.88 0.8v0c-0.8 0-1.507-0.2-2.12-0.6-0.62-0.4-1.013-0.967-1.18-1.7zM93.95-1.7v0c2.2 0 3.943-1.067 5.23-3.2 1.28-2.133 1.92-5.35 1.92-9.65v0c0-3.3-0.607-5.817-1.82-7.55-1.22-1.733-2.83-2.6-4.83-2.6v0c-2.933 0-5.467 1.417-7.6 4.25v0 15.55c1.867 2.133 4.233 3.2 7.1 3.2zM82.1 4.75v-24.3c0-2.233-0.05-3.8-0.15-4.7v0l-3.95-0.5c-0.1-0.533-0.1-1.167 0-1.9v0c2.333-0.167 5.2-0.517 8.6-1.05v0c0.3 0.3 0.467 0.633 0.5 1v0c-0.167 1.167-0.25 2.4-0.25 3.7v0c2.7-3.133 5.8-4.7 9.3-4.7v0c2.933 0 5.377 1.217 7.33 3.65 1.947 2.433 2.92 5.65 2.92 9.65v0c0 4.633-1.273 8.357-3.82 11.17-2.553 2.82-5.563 4.23-9.03 4.23v0c-2.433 0-4.667-0.783-6.7-2.35v0 12.25l5.05 0.75c0.133 0.533 0.133 1.2 0 2v0c-2.1-0.1-4.417-0.15-6.95-0.15v0c-1.867 0-4.2 0.033-7 0.1v0c-0.2-0.667-0.2-1.317 0-1.95v0l3.95-0.55c0.133-1.833 0.2-3.95 0.2-6.35z" fill="white" fill-rule="nonzero" stroke="none" stroke-width="1" stroke-linecap="butt" stroke-linejoin="miter" stroke-miterlimit="10" stroke-dasharray="" stroke-dashoffset="0" font-family="none" font-weight="none" font-size="none" text-anchor="none" style="mix-blend-mode: normal" opacity="1"></path></g></svg></g></svg></g></svg></g></svg></g><g transform="matrix(1,0,0,1,0,7.755161774744025)"><svg viewBox="0 0 207.36028166805153 148.57257294772765" height="148.57257294772765" width="207.36028166805153"><g><svg xmlns="http://www.w3.org/2000/svg" xmlns:xlink="http://www.w3.org/1999/xlink" version="1.1" x="0" y="0" viewBox="1.5 15.2 97 69.5" enable-background="new 0 0 100 100" xml:space="preserve" height="148.57257294772765" width="207.36028166805153" class="icon-icon-0" data-fill-palette-color="accent" id="SvgjsSvg1106"><path d="M7.2 84.7H92.7C95.9 84.7 98.5 82.1 98.5 78.9V76.4C98.5 75.9 98.3 75.4 98 75L93.7 69.7C93 68.8 92.6 67.8 92.6 66.7V23.7C92.6 19 88.8 15.2 84.1 15.2H15.9C11.2 15.2 7.4 19 7.4 23.7V66.6C7.4 67.7 7 68.8 6.3 69.6L2 75.1C1.7 75.5 1.5 76 1.5 76.5V79C1.5 82.2 4.1 84.7 7.2 84.7M59.2 76.4C59.2 78 57.9 79.3 56.3 79.3H43.8C42.2 79.3 40.9 78 40.9 76.4V75.8H59.3V76.4zM15.9 60.8V23.7H84.1V67.3H15.9zM54.9 32.9L58.8 35.1 45.1 59.1 41.2 56.9zM38.5 38L30.5 46 38.5 54 35.3 57.2 27.3 49.2 24.2 46 27.4 42.8 35.4 34.8zM72.6 42.8L75.8 46 72.6 49.2 64.6 57.2 61.5 54 69.5 46 61.5 38 64.7 34.8z" fill="black"></path></svg></g></svg></g></svg></g><defs><mask></mask></defs></svg><rect width="395.52" height="100.40106428187322" fill="black" stroke="none" visibility="hidden"></rect></g></mask><linearGradient x1="0" x2="1" y1="0.578" y2="0.595" id="787f21bd-b29c-4813-914d-f5eb16f2f877"><stop stop-color="#6ee2f5" offset="0"></stop><stop stop-color="#6454f0" offset="1"></stop></linearGradient><rect width="395.52" height="100.40106428187322" fill="url(#787f21bd-b29c-4813-914d-f5eb16f2f877)" mask="url(#40a4cfdb-3ae9-4b6b-82aa-b05aa90d50cb)" data-fill-palette-color="primary"></rect><mask id="9b49b964-4f88-40dd-a5d2-6413174ccda7"><g id="SvgjsG1134"><svg viewBox="0 0 395.52 100.40106428187322" height="100.40106428187322" width="395.52"><g><svg viewBox="0 0 646.3882398734262 164.0828964972157" height="100.40106428187322" width="395.52"><g></g><g transform="matrix(1,0,0,1,250.8682398734262,0.40816640919705094)"><svg viewBox="0 0 395.52 163.2665636788216" height="163.2665636788216" width="395.52"><g id="SvgjsG1133"><svg viewBox="0 0 395.52 163.2665636788216" height="163.2665636788216" width="395.52" id="SvgjsSvg1132"><g><svg viewBox="0 0 395.52 163.2665636788216" height="163.2665636788216" width="395.52"><g transform="matrix(1,0,0,1,0,0)"><svg width="395.52" viewBox="2.1499999999999932 -40.79999999999999 278.35 111.9" height="163.2665636788216" data-palette-color="url(#787f21bd-b29c-4813-914d-f5eb16f2f877)"><svg></svg><svg></svg><g class="wordmark-text-0" data-fill-palette-color="primary" id="SvgjsG1131"></g></svg></g></svg></g></svg></g></svg></g><g transform="matrix(1,0,0,1,0,7.755161774744025)"><svg viewBox="0 0 207.36028166805153 148.57257294772765" height="148.57257294772765" width="207.36028166805153"><g><svg xmlns="http://www.w3.org/2000/svg" xmlns:xlink="http://www.w3.org/1999/xlink" version="1.1" x="0" y="0" viewBox="1.5 15.2 97 69.5" enable-background="new 0 0 100 100" xml:space="preserve" height="148.57257294772765" width="207.36028166805153" class="icon-icon-0" data-fill-palette-color="accent" id="SvgjsSvg1130"><path d="M7.2 84.7H92.7C95.9 84.7 98.5 82.1 98.5 78.9V76.4C98.5 75.9 98.3 75.4 98 75L93.7 69.7C93 68.8 92.6 67.8 92.6 66.7V23.7C92.6 19 88.8 15.2 84.1 15.2H15.9C11.2 15.2 7.4 19 7.4 23.7V66.6C7.4 67.7 7 68.8 6.3 69.6L2 75.1C1.7 75.5 1.5 76 1.5 76.5V79C1.5 82.2 4.1 84.7 7.2 84.7M59.2 76.4C59.2 78 57.9 79.3 56.3 79.3H43.8C42.2 79.3 40.9 78 40.9 76.4V75.8H59.3V76.4zM15.9 60.8V23.7H84.1V67.3H15.9zM54.9 32.9L58.8 35.1 45.1 59.1 41.2 56.9zM38.5 38L30.5 46 38.5 54 35.3 57.2 27.3 49.2 24.2 46 27.4 42.8 35.4 34.8zM72.6 42.8L75.8 46 72.6 49.2 64.6 57.2 61.5 54 69.5 46 61.5 38 64.7 34.8z" fill="white"></path></svg></g></svg></g></svg></g><defs><mask></mask></defs><mask><g id="SvgjsG1129"><svg viewBox="0 0 395.52 100.40106428187322" height="100.40106428187322" width="395.52"><g><svg viewBox="0 0 646.3882398734262 164.0828964972157" height="100.40106428187322" width="395.52"><g><rect width="6.977346781886286" height="164.0828964972157" x="225.62558737979572" y="0" fill="black" opacity="1" stroke-width="0" stroke="transparent" fill-opacity="1" class="rect-yte-0" rx="1%" id="SvgjsRect1128" data-palette-color="url(#787f21bd-b29c-4813-914d-f5eb16f2f877)"></rect></g><g transform="matrix(1,0,0,1,250.8682398734262,0.40816640919705094)"><svg viewBox="0 0 395.52 163.2665636788216" height="163.2665636788216" width="395.52"><g id="SvgjsG1127"><svg viewBox="0 0 395.52 163.2665636788216" height="163.2665636788216" width="395.52" id="SvgjsSvg1126"><g><svg viewBox="0 0 395.52 163.2665636788216" height="163.2665636788216" width="395.52"><g transform="matrix(1,0,0,1,0,0)"><svg width="395.52" viewBox="2.1499999999999932 -40.79999999999999 278.35 111.9" height="163.2665636788216" data-palette-color="url(#787f21bd-b29c-4813-914d-f5eb16f2f877)"><svg></svg><svg></svg><g class="wordmark-text-0" data-fill-palette-color="primary" id="SvgjsG1125"><path d="M2.6-39.95v0c1.7 0 4.15-0.067 7.35-0.2 3.2-0.133 5.317-0.2 6.35-0.2v0h1.35c4.367 0 7.617 0.89 9.75 2.67 2.133 1.787 3.2 4.13 3.2 7.03v0c0 4.133-2.7 7-8.1 8.6v0 0.15c3.133 0.467 5.61 1.69 7.43 3.67 1.813 1.987 2.72 4.363 2.72 7.13v0c0 3.7-1.257 6.583-3.77 8.65-2.52 2.067-6.213 3.1-11.08 3.1v0c-1.333 0-3.49-0.107-6.47-0.32-2.987-0.22-5.363-0.33-7.13-0.33v0c-0.2 0-0.517 0.01-0.95 0.03-0.433 0.013-0.75 0.02-0.95 0.02v0c-0.2-0.6-0.2-1.2 0-1.8v0l4.15-0.55c0.133-1.267 0.2-3.217 0.2-5.85v0-29.45l-4.05-0.5c-0.133-0.5-0.133-1.117 0-1.85zM16-20.3v0h-4v18.1c1.7 0.3 3.05 0.483 4.05 0.55v0c4.033 0 6.817-0.76 8.35-2.28 1.533-1.513 2.3-3.887 2.3-7.12v0c0-2.6-0.94-4.793-2.82-6.58-1.887-1.78-4.513-2.67-7.88-2.67zM16.35-38.25v0c-1.667 0-3.05 0.117-4.15 0.35v0c-0.133 1.267-0.2 3.35-0.2 6.25v0 8.85h3.9c3.1 0 5.36-0.633 6.78-1.9 1.413-1.267 2.12-3.15 2.12-5.65v0c0-2.533-0.773-4.483-2.32-5.85-1.553-1.367-3.597-2.05-6.13-2.05zM41.85-6.65v0c0 1.733 0.317 2.957 0.95 3.67 0.633 0.72 1.633 1.08 3 1.08v0c1 0 2.11-0.31 3.33-0.93 1.213-0.613 2.337-1.503 3.37-2.67v0-7.8c-3.433 0.2-6.067 0.807-7.9 1.82-1.833 1.02-2.75 2.63-2.75 4.83zM52.5-15.1v0-2.55c0-2.833-0.323-4.893-0.97-6.18-0.653-1.28-1.73-1.92-3.23-1.92v0c-1.533 0-2.767 0.49-3.7 1.47-0.933 0.987-1.567 2.663-1.9 5.03v0c-1.067 0.233-1.85 0.35-2.35 0.35v0c-1.3 0-2.067-0.467-2.3-1.4v0c0-2.267 0.983-4.067 2.95-5.4 1.967-1.333 4.417-2 7.35-2v0c3.233 0 5.527 0.657 6.88 1.97 1.347 1.32 2.02 3.68 2.02 7.08v0 14.1c0 0.833 0.05 1.55 0.15 2.15v0l3.95 0.5c0.133 0.5 0.133 1.133 0 1.9v0c-2.367 0.1-4.883 0.333-7.55 0.7v0c-0.267-0.267-0.433-0.6-0.5-1v0l-0.25-3.45c-2.767 3.167-5.85 4.75-9.25 4.75v0c-2.1 0-3.74-0.6-4.92-1.8-1.187-1.2-1.78-2.817-1.78-4.85v0c0-3.067 1.393-5.383 4.18-6.95 2.78-1.567 6.52-2.4 11.22-2.5zM72.45-26.7v0l-0.1 5.15c0.833-1.533 1.993-2.943 3.48-4.23 1.48-1.28 2.887-1.92 4.22-1.92v0c1.033 0 1.95 0.117 2.75 0.35v0c0.267 0.433 0.4 1 0.4 1.7v0c0 1.1-0.233 2.2-0.7 3.3v0c-1.2-0.333-2.35-0.5-3.45-0.5v0c-2.733 0-4.983 1.333-6.75 4v0l-0.1 8.75v7.55l5.55 0.75c0.133 0.533 0.133 1.2 0 2v0c-2.1-0.1-4.5-0.15-7.2-0.15v0c-2.033 0-4.45 0.033-7.25 0.1v0c-0.2-0.633-0.2-1.283 0-1.95v0l3.95-0.55c0.133-1.833 0.2-3.95 0.2-6.35v0-13.7c0-0.667-0.05-1.283-0.15-1.85v0l-3.95-0.5c-0.133-0.5-0.133-1.133 0-1.9v0c2.3-0.167 5.167-0.517 8.6-1.05v0c0.3 0.333 0.467 0.667 0.5 1zM90.3-6.65v0c0 1.733 0.317 2.957 0.95 3.67 0.633 0.72 1.633 1.08 3 1.08v0c1 0 2.11-0.31 3.33-0.93 1.213-0.613 2.337-1.503 3.37-2.67v0-7.8c-3.433 0.2-6.067 0.807-7.9 1.82-1.833 1.02-2.75 2.63-2.75 4.83zM100.95-15.1v0-2.55c0-2.833-0.323-4.893-0.97-6.18-0.653-1.28-1.73-1.92-3.23-1.92v0c-1.533 0-2.767 0.49-3.7 1.47-0.933 0.987-1.567 2.663-1.9 5.03v0c-1.067 0.233-1.85 0.35-2.35 0.35v0c-1.3 0-2.067-0.467-2.3-1.4v0c0-2.267 0.983-4.067 2.95-5.4 1.967-1.333 4.417-2 7.35-2v0c3.233 0 5.527 0.657 6.88 1.97 1.347 1.32 2.02 3.68 2.02 7.08v0 14.1c0 0.833 0.05 1.55 0.15 2.15v0l3.95 0.5c0.133 0.5 0.133 1.133 0 1.9v0c-2.367 0.1-4.883 0.333-7.55 0.7v0c-0.267-0.267-0.433-0.6-0.5-1v0l-0.25-3.45c-2.767 3.167-5.85 4.75-9.25 4.75v0c-2.1 0-3.74-0.6-4.92-1.8-1.187-1.2-1.78-2.817-1.78-4.85v0c0-3.067 1.393-5.383 4.18-6.95 2.78-1.567 6.52-2.4 11.22-2.5zM132.55-8.7v-9.15c0-2.567-0.34-4.367-1.02-5.4-0.687-1.033-1.83-1.55-3.43-1.55v0c-2.467 0-4.95 1.85-7.45 5.55v0 16.7l4.05 0.75c0.133 0.533 0.133 1.2 0 2v0c-2.1-0.1-4.25-0.15-6.45-0.15v0c-1.533 0-3.7 0.033-6.5 0.1v0c-0.2-0.633-0.2-1.283 0-1.95v0l3.95-0.55c0.133-1.833 0.2-3.95 0.2-6.35v0-13.7c0-0.667-0.05-1.283-0.15-1.85v0l-3.95-0.5c-0.133-0.5-0.133-1.133 0-1.9v0c2.3-0.167 5.167-0.517 8.6-1.05v0c0.3 0.333 0.467 0.667 0.5 1v0c-0.167 0.867-0.25 2.35-0.25 4.45v0c2.633-3.633 5.6-5.45 8.9-5.45v0c5.167 0 7.75 2.45 7.75 7.35v0 17.8l4.05 0.75c0.133 0.533 0.133 1.2 0 2v0c-2.1-0.1-4.25-0.15-6.45-0.15v0c-1.533 0-3.7 0.033-6.5 0.1v0c-0.2-0.633-0.2-1.283 0-1.95v0l3.95-0.55c0.133-1.833 0.2-3.95 0.2-6.35zM144.25-13.3v0c0-2 0.293-3.877 0.88-5.63 0.58-1.747 1.42-3.27 2.52-4.57 1.1-1.3 2.427-2.327 3.98-3.08 1.547-0.747 3.287-1.12 5.22-1.12v0c1.9 0 3.633 0.373 5.2 1.12 1.567 0.753 2.91 1.78 4.03 3.08 1.113 1.3 1.97 2.823 2.57 4.57 0.6 1.753 0.9 3.63 0.9 5.63v0c0 2.067-0.307 3.967-0.92 5.7-0.62 1.733-1.487 3.24-2.6 4.52-1.12 1.287-2.463 2.287-4.03 3-1.567 0.72-3.283 1.08-5.15 1.08v0c-1.967 0-3.723-0.35-5.27-1.05-1.553-0.7-2.87-1.683-3.95-2.95-1.087-1.267-1.92-2.777-2.5-4.53-0.587-1.747-0.88-3.67-0.88-5.77zM151.55-22.5v0c-1.433 2.033-2.15 5.1-2.15 9.2v0c0 2.033 0.193 3.817 0.58 5.35 0.38 1.533 0.903 2.807 1.57 3.82 0.667 1.02 1.45 1.78 2.35 2.28 0.9 0.5 1.883 0.75 2.95 0.75v0c1.033 0 2.017-0.25 2.95-0.75 0.933-0.5 1.733-1.26 2.4-2.28 0.667-1.013 1.2-2.287 1.6-3.82 0.4-1.533 0.6-3.317 0.6-5.35v0c0-2.033-0.2-3.827-0.6-5.38-0.4-1.547-0.94-2.83-1.62-3.85-0.687-1.013-1.487-1.78-2.4-2.3-0.92-0.513-1.897-0.77-2.93-0.77v0c-2.067 0-3.833 1.033-5.3 3.1zM209.4-24.3l-10.15 26.5h-1.05l-6.6-18.35-6.85 18.35h-1.05l-9.6-26.45-3.15-0.6c-0.133-0.533-0.133-1.2 0-2v0c1.833 0.133 3.817 0.2 5.95 0.2v0c1.9 0 3.917-0.05 6.05-0.15v0c0.2 0.667 0.2 1.317 0 1.95v0l-3.85 0.6 4 11.35c1.167 3.333 1.933 5.75 2.3 7.25v0h0.1c0.8-2.867 1.583-5.2 2.35-7v0l2.55-6.85-1.7-4.75-3.15-0.6c-0.133-0.533-0.133-1.2 0-2v0c1.833 0.133 3.817 0.2 5.95 0.2v0c1.9 0 3.917-0.05 6.05-0.15v0c0.2 0.667 0.2 1.317 0 1.95v0l-3.85 0.6 3.85 11.35c1.167 3.333 1.933 5.75 2.3 7.25v0h0.1c0.8-2.867 1.583-5.2 2.35-7v0l4.35-11.8-3.9-0.4c-0.133-0.533-0.133-1.2 0-2v0c1.833 0.133 3.55 0.2 5.15 0.2v0c1.367 0 3.117-0.05 5.25-0.15v0c0.2 0.667 0.2 1.317 0 1.95v0zM224.15-1.2v0c1.8 0 3.133-0.417 4-1.25 0.867-0.833 1.3-1.8 1.3-2.9v0c0-0.633-0.1-1.217-0.3-1.75-0.2-0.533-0.523-1.05-0.97-1.55-0.453-0.5-1.047-0.993-1.78-1.48-0.733-0.48-1.65-1.003-2.75-1.57v0c-1.367-0.7-2.54-1.367-3.52-2-0.987-0.633-1.797-1.3-2.43-2-0.633-0.7-1.107-1.45-1.42-2.25-0.32-0.8-0.48-1.7-0.48-2.7v0c0-1.2 0.217-2.243 0.65-3.13 0.433-0.88 1.043-1.613 1.83-2.2 0.78-0.58 1.703-1.013 2.77-1.3 1.067-0.28 2.25-0.42 3.55-0.42v0c2.6 0 5.133 0.633 7.6 1.9v0 6.4h-2.35l-1.1-5.4c-1.467-0.7-3.017-1.05-4.65-1.05v0c-2.733 0-4.1 1.117-4.1 3.35v0c0 1.2 0.45 2.3 1.35 3.3 0.9 1 2.35 2 4.35 3v0c1.367 0.7 2.567 1.367 3.6 2 1.033 0.633 1.893 1.3 2.58 2 0.68 0.7 1.197 1.457 1.55 2.27 0.347 0.82 0.52 1.747 0.52 2.78v0c0 1.167-0.25 2.25-0.75 3.25-0.5 1-1.2 1.857-2.1 2.57-0.9 0.72-1.983 1.29-3.25 1.71-1.267 0.413-2.667 0.62-4.2 0.62v0c-2.967 0-5.75-0.633-8.35-1.9v0-6.4h2.35l1.1 4.95c1.7 0.767 3.5 1.15 5.4 1.15zM256.55-2.3l-10.15-12.1 10.45-10.1-3.3-0.4c-0.133-0.533-0.133-1.183 0-1.95v0c1.833 0.133 3.55 0.2 5.15 0.2v0c1.3 0 3.033-0.05 5.2-0.15v0c0.2 0.6 0.2 1.233 0 1.9v0l-3.95 0.7-8.85 8.3 10.9 13.05 3.9 1c0.133 0.533 0.133 1.2 0 2v0c-2.1-0.1-4.2-0.15-6.3-0.15v0c-1.433 0-3.55 0.033-6.35 0.1v0c-0.2-0.667-0.2-1.317 0-1.95v0zM245.85-31.7v0 29.15l4.05 0.75c0.133 0.533 0.133 1.2 0 2v0c-2.1-0.1-4.233-0.15-6.4-0.15v0c-1.533 0-3.7 0.033-6.5 0.1v0c-0.2-0.633-0.2-1.283 0-1.95v0l3.95-0.55c0.133-1.833 0.2-3.95 0.2-6.35v0-28.65l-4.1-0.5c-0.133-0.5-0.133-1.133 0-1.9v0c2.233-0.167 5.083-0.517 8.55-1.05v0c0.3 0.333 0.467 0.667 0.5 1v0c-0.167 0.867-0.25 3.567-0.25 8.1zM276.35-18.6v0 16.05l4.05 0.75c0.033 0.167 0.057 0.317 0.07 0.45 0.02 0.133 0.03 0.283 0.03 0.45v0c0 0.167-0.01 0.34-0.03 0.52-0.013 0.187-0.037 0.38-0.07 0.58v0c-2.1-0.1-4.25-0.15-6.45-0.15v0c-0.767 0-1.69 0.01-2.77 0.03-1.087 0.013-2.33 0.037-3.73 0.07v0c-0.1-0.3-0.15-0.617-0.15-0.95v0c0-0.3 0.05-0.633 0.15-1v0l3.95-0.55c0.067-0.933 0.117-1.927 0.15-2.98 0.033-1.047 0.05-2.17 0.05-3.37v0-10.65c0-2.2-0.05-3.833-0.15-4.9v0l-3.95-0.5c-0.067-0.167-0.1-0.45-0.1-0.85v0c0-0.167 0-0.333 0-0.5 0-0.167 0.033-0.35 0.1-0.55v0c2.267-0.133 5.133-0.483 8.6-1.05v0c0.3 0.333 0.467 0.667 0.5 1v0c-0.167 0.933-0.25 3.633-0.25 8.1zM269.05-36.45v0c-0.067-0.167-0.1-0.343-0.1-0.53 0-0.18 0-0.353 0-0.52v0c0-0.9 0.373-1.627 1.12-2.18 0.753-0.547 1.68-0.82 2.78-0.82v0c1.033 0 1.877 0.307 2.53 0.92 0.647 0.62 0.97 1.463 0.97 2.53v0c0 0.867-0.377 1.567-1.13 2.1-0.747 0.533-1.703 0.8-2.87 0.8v0c-0.8 0-1.51-0.2-2.13-0.6-0.613-0.4-1.003-0.967-1.17-1.7z" fill="black" fill-rule="nonzero" stroke="none" stroke-width="1" stroke-linecap="butt" stroke-linejoin="miter" stroke-miterlimit="10" stroke-dasharray="" stroke-dashoffset="0" font-family="none" font-weight="none" font-size="none" text-anchor="none" style="mix-blend-mode: normal" opacity="1"></path><path transform="translate(0,57.45)" d="M6.65-8.15v0-29.45l-4.05-0.55c-0.2-0.6-0.2-1.2 0-1.8v0l6.85 0.15h20.2l0.05 11.6c-0.733 0.133-1.35 0.133-1.85 0v0l-2.35-9.05h-13.5v14.75l8-0.15 1.15-4.9c0.5-0.133 1.117-0.133 1.85 0v0c-0.133 1.867-0.2 4.017-0.2 6.45v0c0 2.233 0.05 4.4 0.15 6.5v0c-0.6 0.2-1.2 0.2-1.8 0v0l-1.1-5.2-8.05-0.15v17.75l4.55 0.5c0.133 0.5 0.133 1.117 0 1.85v0c-2.1-0.1-4.467-0.15-7.1-0.15v0c-1.967 0-4.35 0.033-7.15 0.1v0c-0.2-0.6-0.2-1.2 0-1.8v0l4.15-0.6c0.133-1.267 0.2-3.217 0.2-5.85zM41.5-18.6v0 16.05l4.05 0.75c0.033 0.167 0.06 0.317 0.08 0.45 0.013 0.133 0.02 0.283 0.02 0.45v0c0 0.167-0.007 0.34-0.02 0.52-0.02 0.187-0.047 0.38-0.08 0.58v0c-2.1-0.1-4.25-0.15-6.45-0.15v0c-0.767 0-1.69 0.01-2.77 0.03-1.087 0.013-2.33 0.037-3.73 0.07v0c-0.1-0.3-0.15-0.617-0.15-0.95v0c0-0.3 0.05-0.633 0.15-1v0l3.95-0.55c0.067-0.933 0.117-1.927 0.15-2.98 0.033-1.047 0.05-2.17 0.05-3.37v0-10.65c0-2.2-0.05-3.833-0.15-4.9v0l-3.95-0.5c-0.067-0.167-0.1-0.45-0.1-0.85v0c0-0.167 0-0.333 0-0.5 0-0.167 0.033-0.35 0.1-0.55v0c2.267-0.133 5.133-0.483 8.6-1.05v0c0.3 0.333 0.467 0.667 0.5 1v0c-0.167 0.933-0.25 3.633-0.25 8.1zM34.2-36.45v0c-0.067-0.167-0.1-0.343-0.1-0.53 0-0.18 0-0.353 0-0.52v0c0-0.9 0.377-1.627 1.13-2.18 0.747-0.547 1.67-0.82 2.77-0.82v0c1.033 0 1.877 0.307 2.53 0.92 0.647 0.62 0.97 1.463 0.97 2.53v0c0 0.867-0.373 1.567-1.12 2.1-0.753 0.533-1.713 0.8-2.88 0.8v0c-0.8 0-1.507-0.2-2.12-0.6-0.62-0.4-1.013-0.967-1.18-1.7zM56.45-31.7v0 29.15l4.05 0.75c0.133 0.533 0.133 1.2 0 2v0c-2.1-0.1-4.25-0.15-6.45-0.15v0c-1.533 0-3.7 0.033-6.5 0.1v0c-0.2-0.633-0.2-1.283 0-1.95v0l3.95-0.55c0.133-1.833 0.2-3.95 0.2-6.35v0-28.65l-4.1-0.5c-0.133-0.5-0.133-1.133 0-1.9v0c2.3-0.167 5.167-0.517 8.6-1.05v0c0.3 0.333 0.467 0.667 0.5 1v0c-0.167 0.867-0.25 3.567-0.25 8.1zM71.95-18.6v0 16.05l4.05 0.75c0.033 0.167 0.06 0.317 0.08 0.45 0.013 0.133 0.02 0.283 0.02 0.45v0c0 0.167-0.007 0.34-0.02 0.52-0.02 0.187-0.047 0.38-0.08 0.58v0c-2.1-0.1-4.25-0.15-6.45-0.15v0c-0.767 0-1.69 0.01-2.77 0.03-1.087 0.013-2.33 0.037-3.73 0.07v0c-0.1-0.3-0.15-0.617-0.15-0.95v0c0-0.3 0.05-0.633 0.15-1v0l3.95-0.55c0.067-0.933 0.117-1.927 0.15-2.98 0.033-1.047 0.05-2.17 0.05-3.37v0-10.65c0-2.2-0.05-3.833-0.15-4.9v0l-3.95-0.5c-0.067-0.167-0.1-0.45-0.1-0.85v0c0-0.167 0-0.333 0-0.5 0-0.167 0.033-0.35 0.1-0.55v0c2.267-0.133 5.133-0.483 8.6-1.05v0c0.3 0.333 0.467 0.667 0.5 1v0c-0.167 0.933-0.25 3.633-0.25 8.1zM64.65-36.45v0c-0.067-0.167-0.1-0.343-0.1-0.53 0-0.18 0-0.353 0-0.52v0c0-0.9 0.377-1.627 1.13-2.18 0.747-0.547 1.67-0.82 2.77-0.82v0c1.033 0 1.877 0.307 2.53 0.92 0.647 0.62 0.97 1.463 0.97 2.53v0c0 0.867-0.373 1.567-1.12 2.1-0.753 0.533-1.713 0.8-2.88 0.8v0c-0.8 0-1.507-0.2-2.12-0.6-0.62-0.4-1.013-0.967-1.18-1.7zM93.95-1.7v0c2.2 0 3.943-1.067 5.23-3.2 1.28-2.133 1.92-5.35 1.92-9.65v0c0-3.3-0.607-5.817-1.82-7.55-1.22-1.733-2.83-2.6-4.83-2.6v0c-2.933 0-5.467 1.417-7.6 4.25v0 15.55c1.867 2.133 4.233 3.2 7.1 3.2zM82.1 4.75v-24.3c0-2.233-0.05-3.8-0.15-4.7v0l-3.95-0.5c-0.1-0.533-0.1-1.167 0-1.9v0c2.333-0.167 5.2-0.517 8.6-1.05v0c0.3 0.3 0.467 0.633 0.5 1v0c-0.167 1.167-0.25 2.4-0.25 3.7v0c2.7-3.133 5.8-4.7 9.3-4.7v0c2.933 0 5.377 1.217 7.33 3.65 1.947 2.433 2.92 5.65 2.92 9.65v0c0 4.633-1.273 8.357-3.82 11.17-2.553 2.82-5.563 4.23-9.03 4.23v0c-2.433 0-4.667-0.783-6.7-2.35v0 12.25l5.05 0.75c0.133 0.533 0.133 1.2 0 2v0c-2.1-0.1-4.417-0.15-6.95-0.15v0c-1.867 0-4.2 0.033-7 0.1v0c-0.2-0.667-0.2-1.317 0-1.95v0l3.95-0.55c0.133-1.833 0.2-3.95 0.2-6.35z" fill="black" fill-rule="nonzero" stroke="none" stroke-width="1" stroke-linecap="butt" stroke-linejoin="miter" stroke-miterlimit="10" stroke-dasharray="" stroke-dashoffset="0" font-family="none" font-weight="none" font-size="none" text-anchor="none" style="mix-blend-mode: normal" opacity="1"></path></g></svg></g></svg></g></svg></g></svg></g><g transform="matrix(1,0,0,1,0,7.755161774744025)"><svg viewBox="0 0 207.36028166805153 148.57257294772765" height="148.57257294772765" width="207.36028166805153"><g><svg xmlns="http://www.w3.org/2000/svg" xmlns:xlink="http://www.w3.org/1999/xlink" version="1.1" x="0" y="0" viewBox="1.5 15.2 97 69.5" enable-background="new 0 0 100 100" xml:space="preserve" height="148.57257294772765" width="207.36028166805153" class="icon-icon-0" data-fill-palette-color="accent" id="SvgjsSvg1124"><path d="M7.2 84.7H92.7C95.9 84.7 98.5 82.1 98.5 78.9V76.4C98.5 75.9 98.3 75.4 98 75L93.7 69.7C93 68.8 92.6 67.8 92.6 66.7V23.7C92.6 19 88.8 15.2 84.1 15.2H15.9C11.2 15.2 7.4 19 7.4 23.7V66.6C7.4 67.7 7 68.8 6.3 69.6L2 75.1C1.7 75.5 1.5 76 1.5 76.5V79C1.5 82.2 4.1 84.7 7.2 84.7M59.2 76.4C59.2 78 57.9 79.3 56.3 79.3H43.8C42.2 79.3 40.9 78 40.9 76.4V75.8H59.3V76.4zM15.9 60.8V23.7H84.1V67.3H15.9zM54.9 32.9L58.8 35.1 45.1 59.1 41.2 56.9zM38.5 38L30.5 46 38.5 54 35.3 57.2 27.3 49.2 24.2 46 27.4 42.8 35.4 34.8zM72.6 42.8L75.8 46 72.6 49.2 64.6 57.2 61.5 54 69.5 46 61.5 38 64.7 34.8z" fill="black"></path></svg></g></svg></g></svg></g><defs><mask></mask></defs></svg><rect width="395.52" height="100.40106428187322" fill="black" stroke="none" visibility="hidden"></rect></g></mask></svg><rect width="395.52" height="100.40106428187322" fill="black" stroke="none" visibility="hidden"></rect></g></mask><linearGradient x1="0" x2="1" y1="0.578" y2="0.595" id="ca72c2de-5852-41b5-8866-2f690916ad52"><stop stop-color="#6ee2f5" offset="0"></stop><stop stop-color="#6454f0" offset="1"></stop></linearGradient><rect width="395.52" height="100.40106428187322" fill="url(#ca72c2de-5852-41b5-8866-2f690916ad52)" mask="url(#9b49b964-4f88-40dd-a5d2-6413174ccda7)" data-fill-palette-color="accent"></rect></svg><rect width="395.52" height="100.40106428187322" fill="none" stroke="none" visibility="hidden"></rect></g></svg></g></svg>